<?xml version="1.0" encoding="UTF-8"?>
<svg width="1652px" height="1024px" viewBox="0 0 1652 1024" version="1.1" xmlns="http://www.w3.org/2000/svg" xmlns:xlink="http://www.w3.org/1999/xlink" style="background: #4A52B7;">
    <!-- Generator: Sketch 49.3 (51167) - http://www.bohemiancoding.com/sketch -->
    <title>cover</title>
    <desc>Created with Sketch.</desc>
    <defs></defs>
    <g id="cover" stroke="none" stroke-width="1" fill="none" fill-rule="evenodd">
        <g id="Group-2" transform="translate(1244.000000, 296.000000)">
            <path d="M154.702466,183.786108 C149.886065,188.436202 148.056179,195.672683 152.646241,201.258196 C156.969684,206.515831 165.336525,207.632548 170.736033,203.439556 C183.773497,193.321598 170.183615,174.653716 156.11612,178.51883 C153.513231,179.234377 154.163474,182.966411 156.735673,183.11492 C160.850041,183.350222 165.252127,183.508375 168.537868,186.40721 C172.067209,189.520131 172.145852,194.785481 169.24949,198.367076 C161.580845,207.846634 148.261418,193.886707 156.317523,185.410073 C157.332209,184.341573 155.763186,182.761968 154.702466,183.786108" id="Fill-47" fill="#6D7EB0"></path>
            <path d="M289.040311,199.402419 C290.721026,206.109072 292.567806,212.737239 294.49123,219.367368 C294.952925,220.964564 296.358083,221.464914 297.631849,220.532889 C302.644796,216.871504 307.657743,213.272908 312.406082,209.219091 C313.318523,208.440114 313.119611,206.868427 312.21812,206.201293 C306.655884,202.098423 299.148325,196.043206 292.093337,196.000038 C290.297654,195.988265 289.045786,198.703891 290.865192,199.832131 C293.710181,201.598072 297.122708,202.227925 300.162959,203.585738 C303.674029,205.155463 307.148601,206.995967 310.249074,209.376063 C310.316594,208.275293 310.38594,207.174523 310.455285,206.073753 C305.150357,209.586014 300.153834,213.526026 295.106215,217.45034 C296.09895,217.664215 297.091685,217.880052 298.086245,218.091965 C295.932885,211.542285 293.722955,205.041658 291.336011,198.588123 C290.830519,197.226386 288.68081,197.972006 289.040311,199.402419" id="Fill-48" fill="#556AA4"></path>
            <path d="M325.041754,234.835849 C332.862553,231.015454 340.873073,226.622488 347.921565,221.46349 C350.512528,219.571857 347.963726,215.874575 345.232867,217.332382 C337.695695,221.357965 330.352078,226.558001 323.627457,231.861608 C322.278316,232.924674 323.269091,235.69959 325.041754,234.835849" id="Fill-49" fill="#6678AC"></path>
            <path d="M36.9693272,259.336607 C35.414732,250.732942 33.3904816,241.8041 30.4469449,233.620456 C29.3638253,230.612561 25.4190856,232.170705 26.0725981,235.207634 C27.8784041,243.5829 30.7909946,252.066559 33.9456942,259.969542 C34.5791826,261.554785 37.318838,261.285739 36.9693272,259.336607" id="Fill-50" fill="#6274AA"></path>
            <path d="M62.6027554,182.752917 L62.1759549,182.373595 C60.2898321,180.709412 57.1978581,180.382153 55.3657843,182.373595 C53.5113454,184.38735 53.5784407,187.154171 55.3657843,189.167926 L55.7459909,189.595593 C57.4308278,191.495923 60.9048722,191.44014 62.6027554,189.595593 C64.2913199,187.760343 64.6323876,184.543541 62.6027554,182.752917" id="Fill-51" fill="#282544"></path>
            <path d="M270.386534,401.512001 C270.386534,401.512001 188.065413,420.567842 155,387.662058 L166.833877,309.061964 C170.428736,286.468708 168.284097,242.996496 185.671398,227.57543 C189.036064,224.591631 192.274122,223.104504 192.274122,223.104504 C204.470554,217.243812 226.168233,214.080565 247.000767,214.000386 C272.306733,213.901117 298.355074,232.947413 305,257.247333 L277.608862,321.010522 L270.386534,401.512001" id="Fill-52" fill="#556AA4"></path>
            <path d="M263.048019,267.841862 C263.048019,267.841862 300.083954,338.864003 281.693138,342.646531 C221.19957,355.08936 186.084401,365.295664 186.084401,365.295664 L183,388.685191 C183.90355,392.220281 305.393517,389.162802 319.780968,372.910591 C329.943503,361.43833 343.450522,334.920353 314.716077,277.524519 L305.984967,258 L263.048019,267.841862" id="Fill-53" fill="#8A93BD"></path>
            <path d="M195,231.22732 L102.552138,266.783366 L99.6578322,218.604905 L79.8649534,211 C79.8649534,211 51.1651826,288.328358 87.0553427,302.72685 C122.949364,317.125341 163.394339,290.520642 163.394339,290.520642 L195,231.22732" id="Fill-54" fill="#8A93BD"></path>
            <path d="M205,219 C173.044616,229.247573 153.986496,241.258253 109,260.144276 L132.100347,312 L171.918376,299.130865 L205,219" id="Fill-55" fill="#556AA4"></path>
            <polyline id="Fill-56" fill="#556AA4" points="257.461663 258.294826 280.666749 312 333 302.482314 297.742407 242 256 258.294826"></polyline>
            <path d="M228.615606,293.991455 C239.560537,293.441616 250.368516,293.869645 261.304067,293.999914 C262.258981,294.011757 262.204575,292.791959 261.304067,292.697218 C250.529857,291.53325 239.399196,292.000191 228.615606,292.835947 C227.805149,292.898544 227.784512,294.033751 228.615606,293.991455" id="Fill-57" fill="#302E58"></path>
            <path d="M278.547978,232.001734 C241.449026,235.440926 266.824197,291.5867 276.330474,308.587514 C276.863202,309.534258 278.284438,308.682189 277.759239,307.729648 C268.309435,290.556874 243.017091,238.308207 278.672218,232.929157 C279.180475,232.853803 279.065646,231.955363 278.547978,232.001734" id="Fill-58" fill="#302E58"></path>
            <path d="M175.03927,263.345 C170.328099,281.578097 167.167907,300.538407 166.001276,319.312205 C165.952747,320.086518 167.303788,320.286219 167.418316,319.498718 C170.157278,300.832307 172.909829,282.218648 175.992375,263.601221 C176.091374,263.005885 175.196503,262.734593 175.03927,263.345" id="Fill-59" fill="#302E58"></path>
            <path d="M262.486511,161 C263.059803,153.02195 263.633096,145.043901 264.202591,137.063934 C270.413888,135.298064 273.641029,127.273998 271.161825,121.259304 C268.686418,115.244611 261.647455,111.866258 255.261513,112.786581 C259.291642,110.016026 258.980318,103.399287 255.673448,99.7793502 C252.366578,96.1613306 247.184169,94.9898362 242.311186,94.8000196 C237.440102,94.610203 232.508272,95.2064956 227.715018,94.3072634 C223.466583,93.5115675 219.307368,91.5482118 215.020965,92.0946536 C210.734563,92.639178 206.639891,97.5092203 208.950144,101.196264 C202.76922,100.279776 196.083344,99.4438158 190.591509,102.455956 C185.099675,105.466179 182.343317,114.032852 187.062536,118.168553 C183.943599,119.773366 183.165289,124.330882 184.919335,127.390956 C186.671483,130.449113 190.259304,132.055843 193.750311,132.308932 C197.241318,132.562021 200.701952,131.670458 204.088551,130.784647" id="Fill-60" fill="#282544"></path>
            <path d="M260.617368,145.120211 L259.378828,161.63756 C259.378828,161.63756 273.244071,163.529894 269.290922,176.338955 C265.341542,189.148016 255.855491,183.545484 255.855491,183.545484 C255.855491,183.545484 253.485864,216.368226 220.288455,205.961341 C193.870029,197.677843 195.485599,163.025781 198.839272,133.481686 C200.140023,122.037932 210.826911,114.16689 221.990742,116.370476 L241.946889,120.307907 C253.482093,122.584055 261.507157,133.248724 260.617368,145.120211" id="Fill-61" fill="#8A93BD"></path>
            <path d="M261,175 L252.032712,223.217979 C250.014364,234.082365 239.391577,241.030541 228.730993,238.467377 C218.850913,236.08716 212.521841,226.356664 214.29829,216.271708 L219.164627,188.637177 L261,175" id="Fill-62" fill="#8A93BD"></path>
            <path d="M223.96573,176.714626 C224.024145,176.695336 224.13881,177.401356 223.018113,177.887468 C221.847655,178.350432 219.982712,177.339627 219.502413,175.686461 C218.879322,174.095024 218.972353,172.164079 219.071875,170.184909 C219.193031,168.140153 219.325005,165.960366 219.459143,163.672553 C220.108195,154.434498 221.03634,146.973067 221.531783,147.000073 C222.02939,147.027079 221.903907,154.534807 221.254854,163.772862 C221.068793,166.056816 220.893548,168.234675 220.726958,170.277502 C220.527916,172.277891 220.346181,174.02365 220.720468,175.364316 C220.995233,176.722343 222.107276,177.387853 222.832052,177.283686 C223.569808,177.173732 223.838083,176.62975 223.96573,176.714626" id="Fill-63" fill="#282544"></path>
            <path d="M212.007562,203.026249 C212.161022,202.805295 213.788091,204.013178 216.648742,205.372572 C219.489718,206.740383 223.668551,208.137655 228.404167,208.242872 C233.139784,208.352297 237.371737,207.144414 240.2619,205.904966 C243.173704,204.67604 244.849959,203.541809 244.993581,203.769076 C245.10966,203.933214 243.649823,205.452536 240.736051,207.034989 C237.851791,208.619546 233.405388,210.109408 228.370721,209.99367 C223.334087,209.882141 218.950641,208.192368 216.133274,206.479447 C213.284427,204.768631 211.883614,203.184074 212.007562,203.026249" id="Fill-64" fill="#282544"></path>
            <path d="M219.031143,182.4697 C219.228861,182.306546 220.027974,183.034911 221.552056,183.671987 C223.041124,184.31489 225.393153,184.790755 227.718406,184.093467 C230.041601,183.380641 231.660422,181.702489 232.471893,180.360355 C233.316316,179.006568 233.516094,177.975204 233.781779,178.000454 C233.981557,177.996569 234.234884,179.136703 233.567584,180.847874 C232.939415,182.518257 231.166126,184.730544 228.243597,185.631774 C225.312829,186.503869 222.505636,185.682273 220.963019,184.670332 C219.362733,183.644795 218.862258,182.578469 219.031143,182.4697" id="Fill-65" fill="#282544"></path>
            <path d="M263.000371,177.723859 C262.978361,177.50465 263.940183,177.392415 265.016456,176.868066 C265.546889,176.596247 266.015695,176.208685 266.182969,175.668554 C266.356845,175.116146 266.160959,174.604074 265.621722,174.467287 C265.177127,174.3305 264.754541,174.444489 264.655498,174.576015 L263.101615,173.930663 C264.560856,171.52813 265.86603,169.872662 266.244596,170.007695 C266.625363,170.140974 265.960671,172.022666 264.70612,174.4971 L263.152237,173.853501 C263.803724,172.967896 265.238754,172.767977 266.273209,173.102929 C267.02814,173.302848 267.697234,173.906111 267.875513,174.477809 C268.093408,175.060029 268.000968,175.624712 267.785273,176.087682 C267.358285,177.039926 266.348042,177.595841 265.5711,177.801021 C263.944585,178.209627 262.993768,177.888705 263.000371,177.723859" id="Fill-66" fill="#282544"></path>
            <path d="M237.011683,145.999372 C236.837433,145.57212 238.634752,144.568286 240.907832,145.207089 C243.184827,145.833449 244.285147,147.64201 243.936647,147.926153 C243.601852,148.266295 242.280294,147.347496 240.494723,146.87669 C238.720898,146.35818 237.144818,146.470178 237.011683,145.999372" id="Fill-67" fill="#282544"></path>
            <path d="M207.016224,140.252233 C206.808646,139.898166 208.615557,138.817994 211.142069,139.02648 C213.66858,139.220588 215.242214,140.570353 214.969398,140.884879 C214.718328,141.244338 213.071549,140.660218 210.99973,140.516435 C208.929888,140.331314 207.196124,140.64584 207.016224,140.252233" id="Fill-68" fill="#282544"></path>
            <path d="M261.605682,163.107879 C252.081716,153.854536 249.281119,138.437447 246.695655,125.436037 C237.873292,131.837296 225.738666,133.411059 215.567364,129.475685 C212.373327,133.212167 208.623048,136.477484 204.47739,139.126814 C203.299007,139.879903 201.899678,140.611751 200.560431,140.208173 C198.959536,139.729285 198.248243,137.902561 197.868369,136.282453 C196.651224,131.097724 196.606647,125.546104 198.422674,120.537095 C200.236763,115.530017 204.041311,111.131203 209.028117,109.207929 C214.356033,107.153347 220.350667,108.045468 225.882087,109.474407 C234.214104,111.62747 242.245711,114.933339 249.670683,119.268429 C256.961925,123.524349 263.964385,129.151278 267.055701,136.985337 C270.148955,144.817465 270.135388,160.039523 262.679406,164" id="Fill-69" fill="#282544"></path>
            <path d="M238.661348,158.999316 C238.203348,158.969193 237.917348,157.824497 238.021348,156.44446 C238.125348,155.062541 238.583348,153.968679 239.041348,154.000685 C239.499348,154.030808 239.785348,155.175504 239.681348,156.555541 C239.577348,157.935577 239.119348,159.031323 238.661348,158.999316" id="Fill-70" fill="#282544"></path>
            <path d="M211.659973,154.999393 C211.203973,154.967397 210.915973,153.824979 211.021973,152.443538 C211.125973,151.063978 211.581973,149.970494 212.041973,150.000607 C212.497973,150.03072 212.785973,151.175021 212.679973,152.556462 C212.575973,153.936022 212.119973,155.029506 211.659973,154.999393" id="Fill-71" fill="#282544"></path>
            <path d="M78,212.54448 C78,212.54448 82.0995905,187.317345 86.9971268,187.589706 C91.894663,187.862066 101.687808,187.587774 101.687808,187.587774 C101.687808,187.587774 102.505028,163.593021 105.226524,167.411861 C107.946092,171.228769 108.803787,203.51023 98.3071396,219 L78,212.54448" id="Fill-72" fill="#8A93BD"></path>
            <path d="M186,364 C186,364 143.175646,371.738742 144.012096,377.47632 C144.848545,383.211957 147.857885,389 147.857885,389 L186,388.072205 L186,364" id="Fill-73" fill="#8A93BD"></path>
            <polyline id="Fill-74" fill="#324287" points="234 391.549953 233.670564 385.483942 143.792096 379.96414 113.65065 299 15 304.446717 48.6560639 392 234 391.549953"></polyline>
            <path d="M75.491166,353 C69.9551322,353 65.3224597,348.671966 65.0161024,343.077333 C64.6979621,337.288293 69.1322879,332.335796 74.9236195,332.01571 C75.1200024,332.005891 75.3144214,332 75.5088405,332 C81.0429105,332 85.675583,336.329998 85.9839041,341.922667 C86.3020444,347.715635 81.8657548,352.666168 76.0763871,352.98429 C75.8800042,352.996073 75.6836213,353 75.491166,353 M75.5088405,335.002525 C75.3694086,335.002525 75.228013,335.006452 75.0885811,335.014307 C70.9527573,335.242098 67.7851012,338.778754 68.0109416,342.912381 C68.2308904,346.906583 71.5399422,349.999439 75.491166,349.999439 C75.6305979,349.999439 75.7700297,349.995512 75.9114254,349.987657 C80.0452854,349.759865 83.2129415,346.225173 82.9851373,342.087619 C82.7671523,338.095381 79.4600643,335.002525 75.5088405,335.002525" id="Fill-75" fill="#7081AF"></path>
            <path d="M76.4930289,350 C72.541045,350 69.2313567,346.906508 69.0113656,342.911484 C68.7854818,338.777007 71.9537472,335.239623 76.0903666,335.011785 C76.2298252,335.003928 76.3712481,335 76.5107068,335 C80.4626907,335 83.7704148,338.093492 83.9884417,342.086552 C84.2162897,346.224957 81.0480243,349.760377 76.9133692,349.988215 C76.7719463,349.996072 76.6324876,350 76.4930289,350" id="Fill-76" fill="#A3ACC7"></path>
            <path d="M0,391.817756 L385.425179,387 L408,398.867196 C408,398.867196 112.116382,480.169465 0,391.817756" id="Fill-77" fill="#BDC2D8"></path>
            <path d="M302.220125,106.997881 C301.062787,109.236038 304.845953,167.093234 304.845953,167.093234 L333.417017,164.724535 L330.083505,180 L344.043654,164.302634 L372,161.07878 L370.301939,105 L302.220125,106.997881" id="Fill-78" fill="#BDC2D8"></path>
            <path d="M227.268556,16.0838142 C227.268556,16.0838142 207.654007,17.0753241 207,38.2198939 C207,38.2198939 207.327004,49.7836887 213.538183,54.0802316 C219.749362,58.3748642 219.422359,63 219.422359,63 L235.766871,63 C235.766871,63 235.112864,57.0528509 237.728893,53.7497283 C240.344922,50.4446953 246.883105,43.5060363 245.900204,33.2642547 C244.921083,23.0224732 237.401889,15.0923043 227.268556,16.0838142" id="Fill-79" fill="#6075AA"></path>
            <path d="M219.702882,66.8828031 C225.855947,66.64599 232.076367,67.2084211 238.183868,66.9107602 C239.067405,66.8696468 239.36654,65.7283392 238.405743,65.5638857 C232.466629,64.5459182 225.677655,65.1099939 219.702882,65.6674914 C218.789629,65.7530073 218.742084,66.9206274 219.702882,66.8828031" id="Fill-80" fill="#324287"></path>
            <path d="M222.706068,73.9324714 C225.118888,73.8104678 227.53755,73.7240486 229.952317,73.7460771 C232.353452,73.7681055 234.814957,74.1137823 237.20246,73.9612778 C238.078787,73.9053595 238.349474,72.785299 237.416673,72.5734872 C232.801352,71.5229009 227.181177,72.1295298 222.515224,72.7022688 C221.714846,72.8005494 221.899848,73.9731393 222.706068,73.9324714" id="Fill-81" fill="#324287"></path>
            <path d="M224.696624,76.377269 C226.811841,76.5072454 228.997306,77.0392818 231.104719,76.9976894 C232.150619,76.9786262 232.341848,75.6701978 231.348632,75.392915 C229.299759,74.8210191 226.819647,75.0203162 224.696624,75.0948359 C223.761947,75.1294963 223.773655,76.3200795 224.696624,76.377269" id="Fill-82" fill="#324287"></path>
            <path d="M224.663945,63.0740767 C225.15443,57.2534647 223.03308,50.8123909 221.962186,45.1014947 C221.344991,45.3436261 220.729841,45.5819742 220.116733,45.8222139 C221.003695,47.1747448 222.481283,51.0734388 224.74978,50.9334566 C227.093893,50.7896911 227.960418,46.9193719 228.293539,45.3417344 C227.617078,45.3417344 226.94266,45.3417344 226.270285,45.3417344 C226.721941,47.1388034 226.781208,51.474469 229.828351,51.0639806 C232.411575,50.7178083 234.1528,47.1690699 234.943708,45.224452 C234.242722,45.0447451 233.541736,44.8650382 232.84075,44.6872229 C231.279371,50.3792027 230.53138,57.588287 232.094803,63.3256664 C232.376833,64.3566165 234.144625,64.1523181 234.109882,63.0740767 C233.919819,57.0415997 233.006289,51.137755 234.943708,45.224452 C235.360621,43.9551538 233.341455,43.5049407 232.84075,44.6872229 C232.554634,45.3587593 230.884939,49.1798955 229.30721,48.6861745 C228.90869,48.5632171 228.379374,45.1582442 228.293539,44.8253135 C228.058515,43.9343456 226.456261,43.8662461 226.270285,44.8253135 C226.041392,45.9962459 225.516164,49.1817872 224.026313,48.2302864 C223.163876,47.6798158 222.403623,45.7200647 221.860001,44.8801714 C221.234632,43.9154291 219.842879,44.5964237 220.014549,45.6008907 C220.987346,51.3136786 221.255069,57.9647257 223.734066,63.3067498 C223.948653,63.7683128 224.631246,63.4769985 224.663945,63.0740767" id="Fill-83" fill="#324287"></path>
            <path d="M166.875214,55.9624042 C175.757404,53.1005054 184.922638,50.6360384 193.593027,47.1760436 C194.286196,46.8993998 194.035885,45.8317888 193.279175,46.0227119 C184.237171,48.298204 175.364609,51.680271 166.495897,54.5694446 C165.625585,54.8519329 165.995275,56.2448926 166.875214,55.9624042" id="Fill-84" fill="#6075AA"></path>
            <path d="M176.753168,29.999803 C182.211101,29.8931763 187.886975,30.1949839 193.301695,29.5263084 C194.211037,29.4142601 194.254249,28.2034152 193.301695,28.1329332 C187.858792,27.7389568 182.209222,28.3299214 176.753168,28.4979939 C175.751764,28.5287168 175.746128,30.0196825 176.753168,29.999803" id="Fill-85" fill="#6075AA"></path>
            <path d="M203.735453,19.6768956 C197.554801,14.2456623 191.655861,7.468063 184.614946,3.16960805 C183.510786,2.49451797 182.484143,3.99153977 183.285794,4.90882319 C188.685593,11.0818927 196.261572,15.6702168 202.614277,20.8096738 C203.39513,21.4389951 204.516307,20.3634279 203.735453,19.6768956" id="Fill-86" fill="#6075AA"></path>
            <path d="M217.998189,10.5995412 C218.05552,8.80465384 216.738743,7.08030788 215.915758,5.58718103 C214.94297,3.82168591 214.099641,1.77598456 212.756972,0.298533586 C212.08009,-0.446070352 210.707831,0.314209459 211.055519,1.34881704 C211.70651,3.28086831 213.04548,4.99737633 214.10334,6.70996539 C215.002151,8.16586204 215.869522,10.2037255 217.415626,10.9542078 C217.68194,11.0835338 217.987092,10.930694 217.998189,10.5995412" id="Fill-87" fill="#6075AA"></path>
            <path d="M241.517701,10.6565191 C243.783859,7.6867741 246.146144,4.70973244 247.870306,1.45359312 C248.479796,0.304367481 246.788359,-0.576705511 245.966161,0.461245902 C243.634554,3.39998004 241.885849,6.69807522 240.100329,9.91773118 C239.631963,10.764145 240.922528,11.4336145 241.517701,10.6565191" id="Fill-89" fill="#6075AA"></path>
            <path d="M248.828524,17.9396986 C252.846306,16.1501093 256.629153,13.8248077 260.450543,11.6179062 C264.224212,9.44011957 268.4494,7.54571693 271.734841,4.59347674 C272.404778,3.99177098 271.688955,2.76118566 270.87769,3.04068769 C267.032438,4.36638134 263.550605,6.97700794 260.050417,9.09850598 C256.087697,11.499506 252.009345,13.778224 248.29441,16.5965361 C247.712575,17.039081 248.046625,18.2871352 248.828524,17.9396986" id="Fill-90" fill="#6075AA"></path>
            <path d="M255.544783,30.4469708 C258.44555,31.7039377 263.435441,30.7739148 265.687611,28.1075546 C266.474169,27.1797408 265.637444,25.8189472 264.702175,26.0199735 C263.155936,26.3557537 261.726157,27.3630944 260.183501,27.8071196 C258.648012,28.2511448 257.076689,28.2423085 255.544783,28.6288976 C254.751059,28.8299239 254.88902,30.1642085 255.544783,30.4469708" id="Fill-91" fill="#6075AA"></path>
            <path d="M255.709053,43.9537412 C267.515736,46.9662234 279.701132,50.4098927 291.779955,51.9889695 C293.237711,52.1793133 293.437534,49.8485727 292.1168,49.4465199 C280.548001,45.936813 268.120914,44.1149507 256.230495,42.0172842 C255.006818,41.8036329 254.458732,43.6352066 255.709053,43.9537412" id="Fill-92" fill="#6075AA"></path>
            <path d="M87.7180712,251.883738 C88.1238639,249.214048 88.0454499,246.672971 89.5490395,244.320916 C92.5444567,239.634344 96.7984196,240.813295 100.915158,242.874997 C105.112271,244.973724 109.064339,246.234519 113.624117,244.270251 C120.749995,241.206928 124.092394,230.524272 117.293895,225.500579 C115.09242,223.873432 112.924272,226.558711 113.218324,228.616516 C113.631958,231.488868 115.064975,234.651573 112.587091,237.120549 C109.276057,240.42161 105.394561,237.648641 102.089408,236.169594 C98.5215686,234.56778 94.7282884,234.217018 91.0467481,235.696065 C84.7069712,238.242988 80.1099468,246.787943 85.1421692,252.559929 C85.8537768,253.374477 87.5494809,253.006177 87.7180712,251.883738" id="Fill-93" fill="#373A6E"></path>
            <path d="M179.757734,255.940286 C188.10495,253.735533 196.738946,251.030963 204.564222,247.448935 C207.435848,246.130896 205.58516,242.243423 202.650442,243.130137 C194.544122,245.573692 186.422506,249.146464 178.891658,252.922866 C177.381282,253.679998 177.868809,256.438253 179.757734,255.940286" id="Fill-94" fill="#6678AC"></path>
            <path d="M137.040311,266.402419 C138.71916,273.10711 140.567719,279.737239 142.491096,286.367368 C142.952779,287.964564 144.357903,288.464914 145.631639,287.532889 C150.644464,283.873466 155.657288,280.272908 160.405512,276.219091 C161.319755,275.440114 161.119023,273.868427 160.215729,273.201293 C154.655453,269.098423 147.148078,263.043206 140.093261,263.000038 C138.297623,262.988265 137.045785,265.703891 138.865147,266.832131 C141.710066,268.598072 145.12251,269.227925 148.164511,270.5877 C151.673671,272.155463 155.148159,273.997929 158.246731,276.374101 C158.316074,275.275293 158.385418,274.174523 158.454762,273.075715 C153.149964,276.587976 148.151737,280.526026 143.106066,284.452302 C144.098776,284.664215 145.091487,284.87809 146.086023,285.093928 C143.932716,278.544247 141.72284,272.041658 139.335954,265.586161 C138.830475,264.226386 136.680818,264.972006 137.040311,266.402419" id="Fill-95" fill="#D5D9E5"></path>
            <path d="M148.229654,331.452998 C156.632117,332.04948 165.466718,332.286292 173.859868,331.497511 C176.942571,331.207283 176.562588,327.185036 173.569292,327.074643 C165.308392,326.764828 156.647019,327.453898 148.458762,328.504419 C146.815895,328.716303 146.324152,331.317676 148.229654,331.452998" id="Fill-96" fill="#373A6E"></path>
            <polyline id="Fill-97" fill="#BDC2D8" points="20 95 24.8886939 152.698993 132.311763 152.698993 138.260471 173 144.528714 150.736455 165 149.561203 155.563194 97.8823001 20 95"></polyline>
            <path d="M33.864393,116.0826 C70.9749527,114.519577 107.993389,114.475249 145.006067,117.99446 C146.326509,118.121661 146.336105,116.017072 145.006067,115.916854 C108.050966,113.104954 70.8828289,111.877277 33.864393,114.278667 C32.7205218,114.353831 32.7032486,116.132709 33.864393,116.0826" id="Fill-98" fill="#FFFFFE"></path>
            <path d="M36.8658324,127.08444 C73.9763921,125.519288 110.992909,125.474955 148.007506,128.994618 C149.326029,129.119908 149.335625,127.016976 148.007506,126.916745 C111.052405,124.104484 73.882349,122.87665 36.8658324,125.280275 C35.720042,125.353521 35.7027687,127.132628 36.8658324,127.08444" id="Fill-99" fill="#FFFFFE"></path>
            <path d="M36.8755496,137.777459 C62.0200632,138.738185 86.8683719,136.760876 111.997398,138.995124 C113.327416,139.112422 113.340968,137.075533 111.997398,136.986163 C86.9032195,135.338405 61.9968315,136.321474 36.8755496,136.034746 C35.7042814,136.019851 35.7120253,137.732774 36.8755496,137.777459" id="Fill-100" fill="#FFFFFE"></path>
            <path d="M318,135.441218 C318,135.441218 328.145564,158.143555 330.973422,156.954901 C333.803189,155.764345 360,139.566322 360,139.566322 C360,139.566322 349.262914,119.239392 347.026578,118.054541 C344.792149,116.867789 318,135.441218 318,135.441218" id="Fill-101" fill="#FFFFFE"></path>
            <path d="M346.963517,118.001883 C347.374773,118.149109 344.261788,127.113336 340.017846,138.019106 L339.863625,138.412936 L339.635149,139 L338.99732,138.898782 C327.28602,137.051095 317.931831,135.238374 318.000374,134.826141 C318.070821,134.415748 327.537344,135.55675 339.250547,137.387875 L338.382338,137.873721 L338.53656,137.481731 C342.780502,126.57412 346.556068,117.852816 346.963517,118.001883" id="Fill-102" fill="#282544"></path>
            <path d="M328.137288,154.998192 C327.686203,154.905416 328.382968,151.233319 329.695946,146.7986 C331.00691,142.362024 332.428632,138.873625 332.867634,139.003513 C333.308649,139.135255 332.611885,142.805496 331.308976,147.204961 C330.010094,151.600715 328.588372,155.090969 328.137288,154.998192" id="Fill-103" fill="#282544"></path>
            <path d="M358.999087,134.779226 C358.931146,135.211823 355.294438,134.988854 350.876412,134.28374 C346.458387,133.576719 342.933025,132.652447 343.000966,132.21985 C343.070794,131.789158 346.703728,132.010221 351.12364,132.717241 C355.539779,133.424262 359.06514,134.348534 358.999087,134.779226" id="Fill-104" fill="#282544"></path>
        </g>
    </g>
</svg>